# xmcd
#
# Track frame offsets:
#	150
#	16457
#	29100
#	38017
#	57132
#	70147
#	85722
#	100117
#	116432
#	136570
#	153215
#	169850
#
# Disc length: 2451 seconds
#
# Revision: 4
# Processed by: cddbd v1.5PL3 Copyright (c) Steve Scherf et al.
# Submitted via: MusicManager 7.0.4.0 
#
DISCID=8c09910c
DTITLE=Keith Whitley - Don't Close Your Eyes
DYEAR=1988
DGENRE=Country
TTITLE0=Flying Colors
TTITLE1=It's All Coming Back To Me Now
TTITLE2=Lucky Dog
TTITLE3=Don't Close Your Eyes
TTITLE4=The Birmingham Turnaround
TTITLE5=Some Old Side Road
TTITLE6=Would These Arms Be In Your Way
TTITLE7=I'm No Stranger To The Rain
TTITLE8=I Never Go Around Mirrors
TTITLE9=When You Say Nothing At All
TTITLE10=A Day In The Life Of A Fool
TTITLE11=Honky Tonk Heart
EXTD=
EXTT0=
EXTT1=
EXTT2=
EXTT3=
EXTT4=
EXTT5=
EXTT6=
EXTT7=
EXTT8=
EXTT9=
EXTT10=
EXTT11=
PLAYORDER=
